<svg width="80" height="80" viewBox="0 0 80 80" fill="none" xmlns="http://www.w3.org/2000/svg">
<circle cx="40" cy="40" r="40" fill="#FAFCFF"/>
<path d="M38.4082 42.6348C38.4082 41.7233 38.5189 40.9974 38.7402 40.457C38.9616 39.9167 39.3652 39.3861 39.9512 38.8652C40.5436 38.3379 40.9375 37.9115 41.1328 37.5859C41.3281 37.2539 41.4258 36.9056 41.4258 36.541C41.4258 35.4408 40.918 34.8906 39.9023 34.8906C39.4206 34.8906 39.0332 35.0404 38.7402 35.3398C38.4538 35.6328 38.304 36.0397 38.291 36.5605H35.459C35.472 35.3171 35.8724 34.3438 36.6602 33.6406C37.4544 32.9375 38.5352 32.5859 39.9023 32.5859C41.2826 32.5859 42.3535 32.9212 43.1152 33.5918C43.877 34.2559 44.2578 35.1966 44.2578 36.4141C44.2578 36.9674 44.1341 37.4915 43.8867 37.9863C43.6393 38.4746 43.2064 39.0182 42.5879 39.6172L41.7969 40.3691C41.3021 40.8444 41.0189 41.401 40.9473 42.0391L40.9082 42.6348H38.4082ZM38.125 45.6328C38.125 45.1966 38.2715 44.8385 38.5645 44.5586C38.8639 44.2721 39.2448 44.1289 39.707 44.1289C40.1693 44.1289 40.5469 44.2721 40.8398 44.5586C41.1393 44.8385 41.2891 45.1966 41.2891 45.6328C41.2891 46.0625 41.1426 46.4173 40.8496 46.6973C40.5632 46.9772 40.1823 47.1172 39.707 47.1172C39.2318 47.1172 38.8477 46.9772 38.5547 46.6973C38.2682 46.4173 38.125 46.0625 38.125 45.6328Z" fill="#5244ED"/>
</svg>
